:FULLY-SPECIFIED
:FORCE-ALL-JOINTS-BE-3DOF
:DEGREES
612
root -4.21581 15.7489 -40.4831 356.522 -74.1774 369.801
lfemur -6.22703 12.665 -15.5115
ltibia 43.3321 -0 0
lfoot -21.8363 30.0218 -0.025966
ltoes -23.7806 0 0
rfemur -43.2102 -28.4423 16.8036
rtibia 68.8898 -0 0
rfoot -13.8882 -14.6033 0.580574
rtoes -6.9363 0 0
lowerback 11.4786 4.94912 -6.68732
upperback -2.48321 5.4886 -1.22985
thorax -9.65211 2.96608 1.32279
lowerneck 1.83276 -10.9452 -12.0587
upperneck -0.807153 -14.9039 11.6461
head 1.2517 -7.49762 5.08351
lclavicle -5.26695e-14 1.44569e-15 5.66611e-31
lhumerus -71.7494 -24.8149 105.995
lradius 102.499 -0 0
lwrist 56.1633 0 0
lhand 6.52781 54.8639 0.743445
lfingers 7.12502 -0 0
lthumb 34.4251 83.6026 0.124541
rclavicle 3.17139e-15 -7.21507e-16 -2.31277e-30
rhumerus 25.9853 20.7537 -47.1111
rradius 99.6005 -0 0
rwrist -28.2839 0 0
rhand -19.209 -30.8897 0
rfingers 7.12502 -0 0
rthumb 9.68023 -62.6147 0.760522
613
root -4.20479 15.7362 -40.4525 356.531 -74.5146 370.025
lfemur -6.42944 12.7734 -15.6726
ltibia 43.6518 -0 0
lfoot -21.9496 30.3132 -0.0215361
ltoes -23.881 0 0
rfemur -42.4526 -29.1166 17.3941
rtibia 69.9137 -0 0
rfoot -14.7951 -15.9906 0.591554
rtoes -7.44249 0 0
lowerback 11.2036 4.95788 -6.76689
upperback -2.60352 5.50125 -1.29482
thorax -9.62795 2.97741 1.30997
lowerneck 1.68853 -10.8974 -12.0761
upperneck -0.728978 -14.8313 11.6752
head 1.29304 -7.45737 5.08742
lclavicle -5.70464e-14 1.67289e-15 3.41199e-31
lhumerus -71.7908 -24.7744 106.021
lradius 102.507 -0 0
lwrist 56.1723 0 0
lhand 5.28504 54.0597 0.839074
lfingers 7.12502 -0 0
lthumb 33.7121 83.2034 0.209371
rclavicle 5.78086e-15 3.72457e-16 -2.55158e-30
rhumerus 26.4461 19.1353 -47.3144
rradius 98.0334 -0 0
rwrist -29.1823 0 0
rhand -19.2735 -30.9 0.000798163
rfingers 7.12502 0 0
rthumb 7.93768 -63.2148 0.682415
614
root -4.19727 15.7243 -40.4217 356.954 -74.8976 369.829
lfemur -6.64239 12.8865 -15.8421
ltibia 43.9291 -0 0
lfoot -22.0525 30.578 -0.0170102
ltoes -23.9918 0 0
rfemur -41.7136 -29.7836 17.9662
rtibia 70.8793 -0 0
rfoot -15.702 -17.3779 0.580574
rtoes -7.94268 0 0
lowerback 10.9203 4.95912 -6.70357
upperback -2.71428 5.52852 -1.34016
thorax -9.576 2.98824 1.23842
lowerneck 1.54875 -10.8305 -12.0285
upperneck -0.703729 -14.7294 11.7148
head 1.31078 -7.40303 5.08919
lclavicle -6.03317e-14 1.84342e-15 1.60599e-31
lhumerus -71.8359 -24.7304 106.049
lradius 102.515 -0 0
lwrist 56.1803 0 0
lhand 3.98053 53.2142 0.920581
lfingers 7.12502 -0 0
lthumb 32.8351 82.7113 0.306813
rclavicle 8.49232e-15 1.50918e-15 -2.74695e-30
rhumerus 26.8547 17.7065 -47.5038
rradius 96.4663 -0 0
rwrist -30.0512 0 0
rhand -19.4583 -30.9296 0.00301822
rfingers 7.12502 -0 0
rthumb 6.29037 -63.78 0.591782
615
root -4.19428 15.712 -40.389 356.935 -75.2845 370.058
lfemur -6.86304 13.0029 -16.0179
ltibia 44.1571 -0 0
lfoot -22.1437 30.8125 -0.0126056
ltoes -24.1115 0 0
rfemur -41.0005 -30.4356 18.5144
rtibia 71.775 -0 0
rfoot -16.5934 -18.7419 0.548367
rtoes -8.43081 0 0
lowerback 10.6208 4.94859 -6.60552
upperback -2.7857 5.53798 -1.47669
thorax -9.45602 2.9832 1.05892
lowerneck 1.37787 -10.7473 -11.9069
upperneck -0.668155 -14.6023 11.7377
head 1.32697 -7.33533 5.0749
lclavicle -6.23971e-14 1.95063e-15 4.20558e-32
lhumerus -71.8838 -24.6835 106.079
lradius 102.523 -0 0
lwrist 56.1873 0 0
lhand 2.62785 52.3366 0.984698
lfingers 7.12502 -0 0
lthumb 31.812 82.1361 0.410847
rclavicle 1.12803e-14 2.67798e-15 -2.89173e-30
rhumerus 27.2046 16.4889 -47.6726
rradius 94.9131 -0 0
rwrist -30.8789 0 0
rhand -19.7498 -30.9763 0.00632815
rfingers 7.12502 -0 0
rthumb 4.75925 -64.3031 0.492948
616
root -4.19404 15.6951 -40.3571 357.301 -75.7136 369.916
lfemur -7.08853 13.1209 -16.1978
ltibia 44.3287 -0 0
lfoot -22.2215 31.0129 -0.00854668
ltoes -24.2387 0 0
rfemur -40.3208 -31.0646 19.0333
rtibia 72.5892 -0 0
rfoot -17.4537 -20.0593 0.497103
rtoes -8.90095 0 0
lowerback 10.3128 4.98507 -6.69108
upperback -2.87916 5.60538 -1.40172
thorax -9.40235 3.02593 1.1922
lowerneck 1.21875 -10.6936 -11.8647
upperneck -0.652777 -14.5121 11.6607
head 1.3375 -7.28534 5.04183
lclavicle -6.31141e-14 1.98785e-15 0
lhumerus -71.9338 -24.6344 106.11
lradius 102.531 -0 0
lwrist 56.193 0 0
lhand 1.24068 51.4358 1.02889
lfingers 7.12502 -0 0
lthumb 30.6605 81.4873 0.515516
rclavicle 1.41192e-14 3.86815e-15 -2.98072e-30
rhumerus 27.489 15.504 -47.8141
rradius 93.3878 -0 0
rwrist -31.6533 0 0
rhand -20.1348 -31.0379 0.0103352
rfingers 7.12502 -0 0
rthumb 3.36517 -64.7772 0.390769
617
root -4.19795 15.6825 -40.3266 357.529 -76.0978 369.917
lfemur -7.31597 13.2389 -16.3794
ltibia 44.4368 -0 0
lfoot -22.2846 31.1753 -0.0050562
ltoes -24.3722 0 0
rfemur -39.6818 -31.6626 19.5178
rtibia 73.31 -0 0
rfoot -18.2678 -21.3069 0.430285
rtoes -9.34708 0 0
lowerback 9.99877 4.97556 -6.77873
upperback -2.95664 5.60866 -1.36181
thorax -9.31875 3.03573 1.30412
lowerneck 0.889589 -10.7101 -11.8419
upperneck -0.436939 -14.5172 11.6988
head 1.45608 -7.27783 5.02244
lclavicle -6.26039e-14 1.99339e-15 -4.84321e-33
lhumerus -71.9852 -24.5839 106.142
lradius 102.539 -0 0
lwrist 56.1972 0 0
lhand -0.167236 50.5211 1.05142
lfingers 7.12502 -0 0
lthumb 29.3987 80.7747 0.615119
rclavicle 1.69837e-14 5.06902e-15 -3.01074e-30
rhumerus 27.7008 14.7737 -47.9219
rradius 91.9044 -0 0
rwrist -32.3628 0 0
rhand -20.5999 -31.1125 0.0146234
rfingers 7.12502 -0 0
rthumb 2.12887 -65.1957 0.290467
618
root -4.20731 15.6701 -40.2972 357.751 -76.5503 369.895
lfemur -7.54243 13.3555 -16.5604
ltibia 44.4744 0 0
lfoot -22.3315 31.296 -0.00234621
ltoes -24.5104 0 0
rfemur -39.0906 -32.2214 19.9629
rtibia 73.9258 -0 0
rfoot -19.0204 -22.4617 0.352592
rtoes -9.76319 0 0
lowerback 9.6788 4.99421 -6.8081
upperback -3.02658 5.65837 -1.3254
thorax -9.22058 3.06421 1.37236
lowerneck 0.976048 -10.5158 -11.7402
upperneck -0.673557 -14.2439 11.5936
head 1.32543 -7.14479 5.00723
lclavicle -6.11316e-14 2.00936e-15 -1.8543e-32
lhumerus -72.0374 -24.5326 106.174
lradius 102.547 -0 0
lwrist 56.1999 0 0
lhand -1.58206 49.6017 1.05142
lfingers 7.12502 -0 0
lthumb 28.0446 80.0085 0.704439
rclavicle 1.98482e-14 6.26989e-15 -2.98072e-30
rhumerus 27.833 14.3195 -47.9903
rradius 90.4767 -0 0
rwrist -32.9957 0 0
rhand -21.1318 -31.1977 0.0187854
rfingers 7.12502 -0 0
rthumb 1.07105 -65.5522 0.19744
619
root -4.22255 15.6629 -40.2688 358.169 -77.0191 369.643
lfemur -7.76499 13.4692 -16.7384
ltibia 44.7172 -0 0
lfoot -22.3607 31.3712 -0.000607825
ltoes -24.6521 0 0
rfemur -38.5546 -32.7327 20.364
rtibia 74.4252 -0 0
rfoot -19.6968 -23.5008 0.269652
rtoes -10.1433 0 0
lowerback 9.38828 5.00007 -6.73781
upperback -3.08294 5.69981 -1.3125
thorax -9.11019 3.0818 1.36162
lowerneck 0.814393 -10.4224 -11.6251
upperneck -0.626413 -14.1036 11.5468
head 1.3376 -7.07026 4.97457
lclavicle -5.87846e-14 2.03483e-15 -3.95324e-32
lhumerus -72.0894 -24.4813 106.206
lradius 102.555 -0 0
lwrist 56.2008 0 0
lhand -2.98998 48.687 1.02889
lfingers 7.12502 0 0
lthumb 26.6165 79.199 0.778937
rclavicle 2.26871e-14 7.46006e-15 -2.89173e-30
rhumerus 27.8785 14.1633 -48.014
rradius 89.1189 -0 0
rwrist -33.5398 0 0
rhand -21.7172 -31.2916 0.0224503
rfingers 7.12502 -0 0
rthumb 0.212282 -65.8405 0.117046
620
root -4.24165 15.6579 -40.2431 358.775 -77.4849 369.236
lfemur -7.98068 13.5784 -16.9111
ltibia 45.4179 -0 0
lfoot -22.3708 31.3971 0
ltoes -24.7959 0 0
rfemur -38.081 -33.188 20.7163
rtibia 74.7963 -0 0
rfoot -20.2824 -24.4016 0.187759
rtoes -10.4814 0 0
lowerback 9.07907 5.0309 -6.65502
upperback -3.15378 5.77704 -1.29696
thorax -9.00664 3.11662 1.34111
lowerneck 0.667942 -10.3535 -11.4894
upperneck -0.564485 -13.9997 11.5235
head 1.35644 -7.01445 4.94404
lclavicle -5.56505e-14 2.06884e-15 -6.59351e-32
lhumerus -72.1407 -24.4307 106.238
lradius 102.562 -0 0
lwrist 55.8262 0 0
lhand -4.37715 47.7862 0.984698
lfingers 7.12502 -0 0
lthumb 25.1327 78.3568 0.834909
rclavicle 2.54751e-14 8.62886e-15 -2.74695e-30
rhumerus 27.9151 14.1694 -47.9809
rradius 87.8447 -0 0
rwrist -33.9835 0 0
rhand -22.3426 -31.3919 0.0253063
rfingers 7.12502 -0 0
rthumb -0.426738 -66.0543 0.0543989
621
root -4.26529 15.6549 -40.221 358.969 -77.9093 369.245
lfemur -8.18651 13.6819 -17.0761
ltibia 46.535 -0 0
lfoot -22.3257 31.3291 -0.008324
ltoes -24.9403 0 0
rfemur -37.677 -33.5789 21.0152
rtibia 75.0274 -0 0
rfoot -20.7628 -25.1413 0.113565
rtoes -10.7715 0 0
lowerback 8.81373 5.05014 -6.66288
upperback -3.22459 5.81965 -1.31409
thorax -8.93229 3.13839 1.33848
lowerneck 0.551915 -10.2828 -11.4844
upperneck -0.529788 -13.9005 11.6647
head 1.38452 -6.96212 4.98309
lclavicle -5.18166e-14 2.11044e-15 -9.57028e-32
lhumerus -72.1905 -24.3815 106.269
lradius 102.569 -0 0
lwrist 54.7388 0 0
lhand -5.72983 46.9086 0.920581
lfingers 7.12502 -0 0
lthumb 23.6116 77.4927 0.869614
rclavicle 2.81865e-14 9.76558e-15 -2.55158e-30
rhumerus 28.0198 14.1869 -47.8861
rradius 86.6682 -0 0
rwrist -34.3151 0 0
rhand -22.9948 -31.4966 0.0271176
rfingers 7.12502 -0 0
rthumb -0.825232 -66.1873 0.0141142
622
root -4.29149 15.6517 -40.1999 359.155 -78.363 369.252
lfemur -8.37949 13.7783 -17.2309
ltibia 48.0268 -0 0
lfoot -22.1943 31.1313 -0.0322329
ltoes -25.0841 0 0
rfemur -37.3499 -33.8972 21.2561
rtibia 75.1071 0 0
rfoot -21.1236 -25.6977 0.0536376
rtoes -11.0075 0 0
lowerback 8.70564 5.03254 -6.79002
upperback -3.39991 5.78656 -1.2648
thorax -9.07875 3.13707 1.46418
lowerneck 0.439681 -10.1511 -11.4054
upperneck -0.346913 -13.7233 11.5962
head 1.42565 -6.86978 4.95057
lclavicle -4.73705e-14 2.15868e-15 -1.26738e-31
lhumerus -72.238 -24.3344 106.298
lradius 102.576 -0 0
lwrist 52.9935 0 0
lhand -7.03434 46.0631 0.839074
lfingers 7.12502 -0 0
lthumb 22.072 76.6176 0.881372
rclavicle 3.0796e-14 1.08595e-14 -2.31277e-30
rhumerus 28.1851 14.2141 -47.7365
rradius 85.6033 -0 0
rwrist -34.5228 0 0
rhand -23.6603 -31.6034 0.0277379
rfingers 7.12502 -0 0
rthumb -0.962706 -66.2331 0
